<?xml version="1.0" encoding="utf-8"?>
<svg x="0pt" y="0pt" width="16pt" height="16pt" viewBox="0 0 16 16" xmlns="http://www.w3.org/2000/svg" xmlns:xlink="http://www.w3.org/1999/xlink">
  <g id="Layer 1">
    <path id="Path 0" style="fill:#000000;fill-opacity:1;fill-rule:nonzero;opacity:1;stroke:#000000;stroke-linecap:butt;stroke-linejoin:miter;stroke-miterlimit:10;stroke-opacity:1;stroke-width:0.5;" d="M8.086,2.207 C8.46106,1.83206,8.96967,1.62143,9.5,1.62143 C10.0303,1.62143,10.5389,1.83206,10.914,2.207 C12.207,3.5,13.5,4.793,14.793,6.086 C15.1679,6.46106,15.3786,6.96967,15.3786,7.5 C15.3786,8.03033,15.1679,8.53895,14.793,8.914 C12.9597,10.7473,11.1263,12.5807,9.293,14.414 C8.91801,14.7891,8.40939,14.9999,7.879,15 C7.879,15,5.12,15,5.12,15 C4.58961,14.9999,4.08099,14.7891,3.706,14.414 C2.87267,13.5807,2.03933,12.7473,1.206,11.914 C0.831058,11.5389,0.620427,11.0303,0.620427,10.5 C0.620427,9.96967,0.831058,9.46106,1.206,9.086 C1.206,9.086,8.086,2.207,8.086,2.207 z M10.207,2.914 C10.0195,2.72653,9.76517,2.62121,9.5,2.62121 C9.23484,2.62121,8.98053,2.72653,8.793,2.914 C8.793,2.914,4.16,7.547,4.16,7.547 C5.92433,9.31133,7.68867,11.0757,9.453,12.84 C10.9973,11.2957,12.5417,9.75133,14.086,8.207 C14.2735,8.01947,14.3788,7.76516,14.3788,7.5 C14.3788,7.23484,14.2735,6.98053,14.086,6.793 C14.086,6.793,10.207,2.914,10.207,2.914 z M8.746,13.547 C8.746,13.547,3.453,8.254,3.453,8.254 C3.453,8.254,1.914,9.793,1.914,9.793 C1.72653,9.98053,1.62121,10.2348,1.62121,10.5 C1.62121,10.7652,1.72653,11.0195,1.914,11.207 C2.74733,12.0403,3.58067,12.8737,4.414,13.707 C4.60149,13.8946,4.8558,13.9999,5.121,14 C5.121,14,7.88,14,7.88,14 C8.14519,13.9999,8.39951,13.8946,8.587,13.707 C8.587,13.707,8.746,13.547,8.746,13.547 z"/>
  </g>
</svg>
