<?xml version="1.0" encoding="utf-8"?>
<svg x="0pt" y="0pt" width="16pt" height="16pt" viewBox="0 0 16 16" xmlns="http://www.w3.org/2000/svg" xmlns:xlink="http://www.w3.org/1999/xlink">
  <g id="Layer 1">
    <path id="Path 0" style="fill:#000000;fill-opacity:1;fill-rule:evenodd;opacity:1;stroke:none;" d="M1.713,5.95401 C1.8752,5.87916,1.98515,5.72347,2.00143,5.54558 C2.01771,5.36768,1.93784,5.19462,1.79193,5.09158 C1.64601,4.98853,1.4562,4.97116,1.294,5.04601 C0.947,5.20601,0.64,5.39401,0.412,5.61601 C0.184,5.84201,4.23517e-22,6.13901,4.23517e-22,6.50001 C4.23517e-22,7.04601,0.408,7.44001,0.823,7.70101 C1.263,7.97901,1.866,8.21101,2.568,8.39701 C3.978,8.77301,5.898,9.00001,8,9.00001 C8.09867,9.00001,8.19667,8.99934,8.294,8.99801 C7.91133,9.38067,7.52867,9.76334,7.146,10.146 C7.01953,10.2725,6.97013,10.4568,7.01643,10.6296 C7.06272,10.8023,7.19766,10.9373,7.37043,10.9836 C7.54319,11.0299,7.72753,10.9805,7.854,10.854 C8.52067,10.1873,9.18733,9.52068,9.854,8.85401 C9.94804,8.7602,10.0009,8.63284,10.0009,8.50001 C10.0009,8.36718,9.94804,8.23981,9.854,8.14601 C9.18733,7.47934,8.52067,6.81267,7.854,6.14601 C7.72753,6.01954,7.54319,5.97014,7.37043,6.01644 C7.19766,6.06273,7.06272,6.19767,7.01643,6.37044 C6.97013,6.5432,7.01953,6.72754,7.146,6.85401 C7.52767,7.23534,7.90933,7.61667,8.291,7.99801 C8.291,7.99801,8,8.00001,8,8.00001 C5.96,8.00001,4.13,7.77901,2.826,7.43101 C2.17,7.25601,1.675,7.05701,1.356,6.85601 C1.012,6.63901,1,6.50601,1,6.50001 C1,6.49701,1,6.44101,1.112,6.33001 C1.227,6.21801,1.422,6.08801,1.712,5.95401 C1.712,5.95401,1.713,5.95401,1.713,5.95401 z M14.706,5.04601 C14.5438,4.97116,14.354,4.98853,14.2081,5.09158 C14.0622,5.19462,13.9823,5.36768,13.9986,5.54558 C14.0149,5.72347,14.1248,5.87916,14.287,5.95401 C14.579,6.08801,14.773,6.21801,14.887,6.33101 C15,6.44101,15,6.49701,15,6.50001 C15,6.50301,15,6.56501,14.87,6.68701 C14.738,6.80901,14.518,6.94701,14.193,7.08701 C13.548,7.36701,12.597,7.61001,11.43,7.77401 C11.1606,7.81688,10.9753,8.06773,11.0135,8.33781 C11.0517,8.60788,11.2993,8.79752,11.57,8.76401 C12.782,8.59401,13.83,8.33401,14.59,8.00601 C14.97,7.84201,15.303,7.64901,15.55,7.41901 C15.796,7.19001,16,6.88201,16,6.50001 C16,6.13801,15.816,5.84001,15.588,5.61701 C15.36,5.39401,15.053,5.20601,14.706,5.04601"/>
  </g>
</svg>
