<?xml version="1.0" encoding="utf-8"?>
<svg x="0pt" y="0pt" width="32pt" height="32pt" viewBox="0 0 32 32" xmlns="http://www.w3.org/2000/svg" xmlns:xlink="http://www.w3.org/1999/xlink">
  <g id="Layer 3">
    <path id="Path" style="fill:#ffffff;fill-opacity:1;fill-rule:evenodd;opacity:1;stroke:#999999;stroke-linecap:round;stroke-linejoin:round;stroke-miterlimit:10;stroke-opacity:1;stroke-width:2;" d="M8.19981,12.2805 C8.19981,12.2805,23.8002,12.2805,23.8002,12.2805 C23.8002,12.2805,21.5906,29.0774,21.5906,29.0774 C21.5906,29.0774,10.8778,29.0774,10.8778,29.0774 C10.8778,29.0774,8.19981,12.2805,8.19981,12.2805 z"/>
    <path id="Path" style="fill:#ffffff;fill-opacity:1;fill-rule:evenodd;opacity:1;stroke:#999999;stroke-linecap:round;stroke-linejoin:round;stroke-miterlimit:10;stroke-opacity:1;stroke-width:2;" d="M8.19981,6.39771 C8.19981,6.39771,23.8002,6.39771,23.8002,6.39771 C23.8002,6.39771,23.8002,9.67673,23.8002,9.67673 C23.8002,9.67673,8.19981,9.67673,8.19981,9.67673 C8.19981,9.67673,8.19981,6.39771,8.19981,6.39771 z"/>
    <path id="Smart Rectangle" style="fill:#ffffff;fill-opacity:1;fill-rule:nonzero;opacity:1;stroke:#999999;stroke-linecap:round;stroke-linejoin:round;stroke-miterlimit:10;stroke-opacity:1;stroke-width:2;" d="M20.3671,4.49717 C20.3671,5.54681,19.5162,6.39771,18.4666,6.39771 C18.4666,6.39771,13.5334,6.39771,13.5334,6.39771 C12.4838,6.39771,11.6329,5.54681,11.6329,4.49717 C11.6329,3.44754,12.4838,2.59664,13.5334,2.59664 C13.5334,2.59664,18.4666,2.59664,18.4666,2.59664 C19.5162,2.59664,20.3671,3.44754,20.3671,4.49717 z"/>
  </g>
</svg>
