<?xml version="1.0" encoding="utf-8"?>
<svg x="0pt" y="0pt" width="32pt" height="32pt" viewBox="0 0 32 32" xmlns="http://www.w3.org/2000/svg" xmlns:xlink="http://www.w3.org/1999/xlink">
  <g id="Layer 1">
    <path id="Smart Polygon" style="fill:#ffffff;fill-opacity:1;fill-rule:nonzero;opacity:1;stroke:#999999;stroke-linecap:round;stroke-linejoin:round;stroke-miterlimit:10;stroke-opacity:1;stroke-width:2;" d="M15,3.22396 C15.6188,2.8667,16.3812,2.8667,17,3.22396 C17,3.22396,26.5644,8.74596,26.5644,8.74596 C27.1832,9.10322,27.5644,9.76347,27.5644,10.478 C27.5644,10.478,27.5644,21.522,27.5644,21.522 C27.5644,22.2365,27.1832,22.8968,26.5644,23.254 C26.5644,23.254,17,28.776,17,28.776 C16.3812,29.1333,15.6188,29.1333,15,28.776 C15,28.776,5.43562,23.254,5.43562,23.254 C4.81682,22.8968,4.43562,22.2365,4.43562,21.522 C4.43562,21.522,4.43562,10.478,4.43562,10.478 C4.43562,9.76347,4.81682,9.10322,5.43562,8.74596 C5.43562,8.74596,15,3.22396,15,3.22396 z"/>
    <path id="Path" style="fill:#aaaaaa;fill-opacity:1;fill-rule:evenodd;opacity:1;stroke:#999999;stroke-linecap:round;stroke-linejoin:round;stroke-miterlimit:10;stroke-opacity:1;stroke-width:2;" d="M5.20253,9.86499 C5.20253,9.86499,16,16.0989,16,16.0989"/>
    <path id="Path" style="fill:#aaaaaa;fill-opacity:1;fill-rule:evenodd;opacity:1;stroke:#999999;stroke-linecap:round;stroke-linejoin:round;stroke-miterlimit:10;stroke-opacity:1;stroke-width:2;" d="M16,16.0989 C16,16.0989,25.9236,10.3695,25.9236,10.3695"/>
    <path id="Path" style="fill:#aaaaaa;fill-opacity:1;fill-rule:evenodd;opacity:1;stroke:#999999;stroke-linecap:round;stroke-linejoin:round;stroke-miterlimit:10;stroke-opacity:1;stroke-width:2;" d="M15.9257,16.282 C15.9257,16.282,15.9257,27.6909,15.9257,27.6909"/>
  </g>
</svg>
